<svg width="25" height="24" viewBox="0 0 25 24" fill="none" xmlns="http://www.w3.org/2000/svg">
<path d="M12.3869 12.3772L8.98498 24H0L0 15.2789C3.87033 13.5311 8.39432 12.4224 12.3869 12.3772Z" fill="white"/>
<path d="M12.3871 12.3773L15.7889 24.0001H24.7739V15.279C20.9036 13.5312 16.3796 12.4225 12.3871 12.3773Z" fill="white"/>
<path d="M12.3871 11.6228L15.7889 7.94326e-06L24.7739 8.70463e-06L24.7739 8.72106C20.9036 10.4689 16.3796 11.5776 12.3871 11.6228Z" fill="white"/>
<path d="M12.3869 11.6229L8.98498 7.05042e-05L1.04417e-06 6.97398e-05L2.60688e-07 8.72112C3.87033 10.4689 8.39432 11.5777 12.3869 11.6229Z" fill="white"/>
</svg>
